<svg xmlns="http://www.w3.org/2000/svg" xmlns:svgjs="http://svgjs.dev/svgjs" xmlns:xlink="http://www.w3.org/1999/xlink" width="1440" height="560" preserveAspectRatio="none" version="1.1" viewBox="0 0 1440 560"><g fill="none" mask="url(&quot;#SvgjsMask1061&quot;)"><g stroke="url(&quot;#SvgjsLinearGradient1062&quot;)" stroke-linecap="round" transform="translate(0, 0)"><path stroke-width="15" d="M300 147.68 L300 412.32"/><path stroke-width="15" d="M320 223.09 L320 336.9"/><path stroke-width="15" d="M340 173.19 L340 386.81"/><path stroke-width="15" d="M360 255.11 L360 304.89"/><path stroke-width="15" d="M380 124.63 L380 435.38"/><path stroke-width="15" d="M400 120.66 L400 439.34"/><path stroke-width="15" d="M420 241.39 L420 318.61"/><path stroke-width="15" d="M440 240.83 L440 319.17"/><path stroke-width="15" d="M460 253.67 L460 306.33"/><path stroke-width="15" d="M480 137.06 L480 422.94"/><path stroke-width="15" d="M500 153.19 L500 406.81"/><path stroke-width="15" d="M520 222.41 L520 337.58"/><path stroke-width="15" d="M540 236.81 L540 323.19"/><path stroke-width="15" d="M560 166.14 L560 393.86"/><path stroke-width="15" d="M580 191.4 L580 368.6"/><path stroke-width="15" d="M600 221.57 L600 338.43"/><path stroke-width="15" d="M620 124.1 L620 435.89"/><path stroke-width="15" d="M640 139.78 L640 420.22"/><path stroke-width="15" d="M660 153.28 L660 406.72"/><path stroke-width="15" d="M680 241.7 L680 318.3"/><path stroke-width="15" d="M700 256.19 L700 303.81"/><path stroke-width="15" d="M720 198.84 L720 361.15"/><path stroke-width="15" d="M740 205.97 L740 354.03"/><path stroke-width="15" d="M760 156.72 L760 403.27"/><path stroke-width="15" d="M780 253.09 L780 306.92"/><path stroke-width="15" d="M800 259.64 L800 300.36"/><path stroke-width="15" d="M820 164.45 L820 395.55"/><path stroke-width="15" d="M840 159.06 L840 400.94"/><path stroke-width="15" d="M860 257.62 L860 302.38"/><path stroke-width="15" d="M880 140 L880 420"/><path stroke-width="15" d="M900 133.12 L900 426.88"/><path stroke-width="15" d="M920 152.3 L920 407.7"/><path stroke-width="15" d="M940 187.96 L940 372.04"/><path stroke-width="15" d="M960 145.19 L960 414.81"/><path stroke-width="15" d="M980 188.62 L980 371.38"/><path stroke-width="15" d="M1000 176.58 L1000 383.42"/><path stroke-width="15" d="M1020 202.67 L1020 357.33"/><path stroke-width="15" d="M1040 153.59 L1040 406.41"/><path stroke-width="15" d="M1060 201.81 L1060 358.19"/><path stroke-width="15" d="M1080 258.24 L1080 301.76"/><path stroke-width="15" d="M1100 122.24 L1100 437.76"/><path stroke-width="15" d="M1120 160.55 L1120 399.45"/><path stroke-width="15" d="M1140 130.33 L1140 429.67"/></g></g><defs><mask id="SvgjsMask1061"><rect width="1440" height="560" fill="#fff"/></mask><linearGradient id="SvgjsLinearGradient1062" x1="280.8" x2="1159.2" y1="280" y2="280" gradientUnits="userSpaceOnUse"><stop offset="0" stop-color="#3a7cc3"/><stop offset="1" stop-color="rgba(153, 17, 221, 1)"/></linearGradient></defs></svg>