<svg xmlns="http://www.w3.org/2000/svg" xmlns:svgjs="http://svgjs.dev/svgjs" xmlns:xlink="http://www.w3.org/1999/xlink" version="1.1" viewBox="0 0 1422 800"><g fill="none" stroke="hsl(180, 69%, 30%)" stroke-linecap="butt" stroke-width="3.5"><line x1="0" x2="54" y1="0" y2="54" opacity=".05"/><line x1="108" x2="54" y1="0" y2="54" opacity=".09"/><line x1="108" x2="162" y1="0" y2="54" opacity=".12"/><line x1="216" x2="162" y1="0" y2="54" opacity=".16"/><line x1="270" x2="216" y1="0" y2="54" opacity=".19"/><line x1="270" x2="324" y1="0" y2="54" opacity=".23"/><line x1="324" x2="378" y1="0" y2="54" opacity=".27"/><line x1="378" x2="432" y1="0" y2="54" opacity=".3"/><line x1="432" x2="486" y1="0" y2="54" opacity=".34"/><line x1="540" x2="486" y1="0" y2="54" opacity=".37"/><line x1="540" x2="594" y1="0" y2="54" opacity=".41"/><line x1="594" x2="648" y1="0" y2="54" opacity=".45"/><line x1="648" x2="702" y1="0" y2="54" opacity=".48"/><line x1="756" x2="702" y1="0" y2="54" opacity=".52"/><line x1="810" x2="756" y1="0" y2="54" opacity=".56"/><line x1="864" x2="810" y1="0" y2="54" opacity=".59"/><line x1="864" x2="918" y1="0" y2="54" opacity=".63"/><line x1="972" x2="918" y1="0" y2="54" opacity=".66"/><line x1="1026" x2="972" y1="0" y2="54" opacity=".7"/><line x1="1026" x2="1080" y1="0" y2="54" opacity=".74"/><line x1="1080" x2="1134" y1="0" y2="54" opacity=".77"/><line x1="1188" x2="1134" y1="0" y2="54" opacity=".81"/><line x1="1242" x2="1188" y1="0" y2="54" opacity=".84"/><line x1="1242" x2="1296" y1="0" y2="54" opacity=".88"/><line x1="1350" x2="1296" y1="0" y2="54" opacity=".92"/><line x1="1404" x2="1350" y1="0" y2="54" opacity=".95"/><line x1="1404" x2="1458" y1="0" y2="54" opacity=".99"/><line x1="54" x2="0" y1="54" y2="108" opacity=".05"/><line x1="54" x2="108" y1="54" y2="108" opacity=".09"/><line x1="108" x2="162" y1="54" y2="108" opacity=".12"/><line x1="216" x2="162" y1="54" y2="108" opacity=".16"/><line x1="216" x2="270" y1="54" y2="108" opacity=".19"/><line x1="324" x2="270" y1="54" y2="108" opacity=".23"/><line x1="324" x2="378" y1="54" y2="108" opacity=".27"/><line x1="432" x2="378" y1="54" y2="108" opacity=".3"/><line x1="486" x2="432" y1="54" y2="108" opacity=".34"/><line x1="486" x2="540" y1="54" y2="108" opacity=".37"/><line x1="594" x2="540" y1="54" y2="108" opacity=".41"/><line x1="594" x2="648" y1="54" y2="108" opacity=".45"/><line x1="648" x2="702" y1="54" y2="108" opacity=".48"/><line x1="756" x2="702" y1="54" y2="108" opacity=".52"/><line x1="810" x2="756" y1="54" y2="108" opacity=".56"/><line x1="810" x2="864" y1="54" y2="108" opacity=".59"/><line x1="918" x2="864" y1="54" y2="108" opacity=".63"/><line x1="972" x2="918" y1="54" y2="108" opacity=".66"/><line x1="1026" x2="972" y1="54" y2="108" opacity=".7"/><line x1="1080" x2="1026" y1="54" y2="108" opacity=".74"/><line x1="1134" x2="1080" y1="54" y2="108" opacity=".77"/><line x1="1134" x2="1188" y1="54" y2="108" opacity=".81"/><line x1="1242" x2="1188" y1="54" y2="108" opacity=".84"/><line x1="1296" x2="1242" y1="54" y2="108" opacity=".88"/><line x1="1350" x2="1296" y1="54" y2="108" opacity=".92"/><line x1="1350" x2="1404" y1="54" y2="108" opacity=".95"/><line x1="1458" x2="1404" y1="54" y2="108" opacity=".99"/><line x1="54" x2="0" y1="108" y2="162" opacity=".05"/><line x1="54" x2="108" y1="108" y2="162" opacity=".09"/><line x1="162" x2="108" y1="108" y2="162" opacity=".12"/><line x1="162" x2="216" y1="108" y2="162" opacity=".16"/><line x1="270" x2="216" y1="108" y2="162" opacity=".19"/><line x1="324" x2="270" y1="108" y2="162" opacity=".23"/><line x1="378" x2="324" y1="108" y2="162" opacity=".27"/><line x1="378" x2="432" y1="108" y2="162" opacity=".3"/><line x1="486" x2="432" y1="108" y2="162" opacity=".34"/><line x1="540" x2="486" y1="108" y2="162" opacity=".37"/><line x1="594" x2="540" y1="108" y2="162" opacity=".41"/><line x1="648" x2="594" y1="108" y2="162" opacity=".45"/><line x1="702" x2="648" y1="108" y2="162" opacity=".48"/><line x1="702" x2="756" y1="108" y2="162" opacity=".52"/><line x1="756" x2="810" y1="108" y2="162" opacity=".56"/><line x1="864" x2="810" y1="108" y2="162" opacity=".59"/><line x1="918" x2="864" y1="108" y2="162" opacity=".63"/><line x1="972" x2="918" y1="108" y2="162" opacity=".66"/><line x1="1026" x2="972" y1="108" y2="162" opacity=".7"/><line x1="1026" x2="1080" y1="108" y2="162" opacity=".74"/><line x1="1080" x2="1134" y1="108" y2="162" opacity=".77"/><line x1="1134" x2="1188" y1="108" y2="162" opacity=".81"/><line x1="1242" x2="1188" y1="108" y2="162" opacity=".84"/><line x1="1296" x2="1242" y1="108" y2="162" opacity=".88"/><line x1="1350" x2="1296" y1="108" y2="162" opacity=".92"/><line x1="1404" x2="1350" y1="108" y2="162" opacity=".95"/><line x1="1458" x2="1404" y1="108" y2="162" opacity=".99"/><line x1="54" x2="0" y1="162" y2="216" opacity=".05"/><line x1="108" x2="54" y1="162" y2="216" opacity=".09"/><line x1="162" x2="108" y1="162" y2="216" opacity=".12"/><line x1="216" x2="162" y1="162" y2="216" opacity=".16"/><line x1="270" x2="216" y1="162" y2="216" opacity=".19"/><line x1="324" x2="270" y1="162" y2="216" opacity=".23"/><line x1="378" x2="324" y1="162" y2="216" opacity=".27"/><line x1="432" x2="378" y1="162" y2="216" opacity=".3"/><line x1="432" x2="486" y1="162" y2="216" opacity=".34"/><line x1="486" x2="540" y1="162" y2="216" opacity=".37"/><line x1="540" x2="594" y1="162" y2="216" opacity=".41"/><line x1="594" x2="648" y1="162" y2="216" opacity=".45"/><line x1="648" x2="702" y1="162" y2="216" opacity=".48"/><line x1="702" x2="756" y1="162" y2="216" opacity=".52"/><line x1="756" x2="810" y1="162" y2="216" opacity=".56"/><line x1="864" x2="810" y1="162" y2="216" opacity=".59"/><line x1="918" x2="864" y1="162" y2="216" opacity=".63"/><line x1="972" x2="918" y1="162" y2="216" opacity=".66"/><line x1="1026" x2="972" y1="162" y2="216" opacity=".7"/><line x1="1026" x2="1080" y1="162" y2="216" opacity=".74"/><line x1="1080" x2="1134" y1="162" y2="216" opacity=".77"/><line x1="1134" x2="1188" y1="162" y2="216" opacity=".81"/><line x1="1188" x2="1242" y1="162" y2="216" opacity=".84"/><line x1="1242" x2="1296" y1="162" y2="216" opacity=".88"/><line x1="1350" x2="1296" y1="162" y2="216" opacity=".92"/><line x1="1350" x2="1404" y1="162" y2="216" opacity=".95"/><line x1="1458" x2="1404" y1="162" y2="216" opacity=".99"/><line x1="54" x2="0" y1="216" y2="270" opacity=".05"/><line x1="108" x2="54" y1="216" y2="270" opacity=".09"/><line x1="162" x2="108" y1="216" y2="270" opacity=".12"/><line x1="162" x2="216" y1="216" y2="270" opacity=".16"/><line x1="270" x2="216" y1="216" y2="270" opacity=".19"/><line x1="324" x2="270" y1="216" y2="270" opacity=".23"/><line x1="378" x2="324" y1="216" y2="270" opacity=".27"/><line x1="378" x2="432" y1="216" y2="270" opacity=".3"/><line x1="486" x2="432" y1="216" y2="270" opacity=".34"/><line x1="486" x2="540" y1="216" y2="270" opacity=".37"/><line x1="540" x2="594" y1="216" y2="270" opacity=".41"/><line x1="648" x2="594" y1="216" y2="270" opacity=".45"/><line x1="702" x2="648" y1="216" y2="270" opacity=".48"/><line x1="756" x2="702" y1="216" y2="270" opacity=".52"/><line x1="810" x2="756" y1="216" y2="270" opacity=".56"/><line x1="864" x2="810" y1="216" y2="270" opacity=".59"/><line x1="864" x2="918" y1="216" y2="270" opacity=".63"/><line x1="972" x2="918" y1="216" y2="270" opacity=".66"/><line x1="1026" x2="972" y1="216" y2="270" opacity=".7"/><line x1="1026" x2="1080" y1="216" y2="270" opacity=".74"/><line x1="1134" x2="1080" y1="216" y2="270" opacity=".77"/><line x1="1134" x2="1188" y1="216" y2="270" opacity=".81"/><line x1="1188" x2="1242" y1="216" y2="270" opacity=".84"/><line x1="1296" x2="1242" y1="216" y2="270" opacity=".88"/><line x1="1296" x2="1350" y1="216" y2="270" opacity=".92"/><line x1="1404" x2="1350" y1="216" y2="270" opacity=".95"/><line x1="1458" x2="1404" y1="216" y2="270" opacity=".99"/><line x1="0" x2="54" y1="270" y2="324" opacity=".05"/><line x1="108" x2="54" y1="270" y2="324" opacity=".09"/><line x1="162" x2="108" y1="270" y2="324" opacity=".12"/><line x1="216" x2="162" y1="270" y2="324" opacity=".16"/><line x1="216" x2="270" y1="270" y2="324" opacity=".19"/><line x1="270" x2="324" y1="270" y2="324" opacity=".23"/><line x1="324" x2="378" y1="270" y2="324" opacity=".27"/><line x1="432" x2="378" y1="270" y2="324" opacity=".3"/><line x1="432" x2="486" y1="270" y2="324" opacity=".34"/><line x1="540" x2="486" y1="270" y2="324" opacity=".37"/><line x1="594" x2="540" y1="270" y2="324" opacity=".41"/><line x1="648" x2="594" y1="270" y2="324" opacity=".45"/><line x1="702" x2="648" y1="270" y2="324" opacity=".48"/><line x1="756" x2="702" y1="270" y2="324" opacity=".52"/><line x1="810" x2="756" y1="270" y2="324" opacity=".56"/><line x1="810" x2="864" y1="270" y2="324" opacity=".59"/><line x1="864" x2="918" y1="270" y2="324" opacity=".63"/><line x1="918" x2="972" y1="270" y2="324" opacity=".66"/><line x1="972" x2="1026" y1="270" y2="324" opacity=".7"/><line x1="1080" x2="1026" y1="270" y2="324" opacity=".74"/><line x1="1080" x2="1134" y1="270" y2="324" opacity=".77"/><line x1="1134" x2="1188" y1="270" y2="324" opacity=".81"/><line x1="1188" x2="1242" y1="270" y2="324" opacity=".84"/><line x1="1242" x2="1296" y1="270" y2="324" opacity=".88"/><line x1="1350" x2="1296" y1="270" y2="324" opacity=".92"/><line x1="1350" x2="1404" y1="270" y2="324" opacity=".95"/><line x1="1404" x2="1458" y1="270" y2="324" opacity=".99"/><line x1="0" x2="54" y1="324" y2="378" opacity=".05"/><line x1="54" x2="108" y1="324" y2="378" opacity=".09"/><line x1="162" x2="108" y1="324" y2="378" opacity=".12"/><line x1="216" x2="162" y1="324" y2="378" opacity=".16"/><line x1="270" x2="216" y1="324" y2="378" opacity=".19"/><line x1="270" x2="324" y1="324" y2="378" opacity=".23"/><line x1="324" x2="378" y1="324" y2="378" opacity=".27"/><line x1="378" x2="432" y1="324" y2="378" opacity=".3"/><line x1="432" x2="486" y1="324" y2="378" opacity=".34"/><line x1="540" x2="486" y1="324" y2="378" opacity=".37"/><line x1="594" x2="540" y1="324" y2="378" opacity=".41"/><line x1="594" x2="648" y1="324" y2="378" opacity=".45"/><line x1="648" x2="702" y1="324" y2="378" opacity=".48"/><line x1="702" x2="756" y1="324" y2="378" opacity=".52"/><line x1="810" x2="756" y1="324" y2="378" opacity=".56"/><line x1="810" x2="864" y1="324" y2="378" opacity=".59"/><line x1="864" x2="918" y1="324" y2="378" opacity=".63"/><line x1="918" x2="972" y1="324" y2="378" opacity=".66"/><line x1="972" x2="1026" y1="324" y2="378" opacity=".7"/><line x1="1080" x2="1026" y1="324" y2="378" opacity=".74"/><line x1="1080" x2="1134" y1="324" y2="378" opacity=".77"/><line x1="1188" x2="1134" y1="324" y2="378" opacity=".81"/><line x1="1242" x2="1188" y1="324" y2="378" opacity=".84"/><line x1="1242" x2="1296" y1="324" y2="378" opacity=".88"/><line x1="1296" x2="1350" y1="324" y2="378" opacity=".92"/><line x1="1350" x2="1404" y1="324" y2="378" opacity=".95"/><line x1="1458" x2="1404" y1="324" y2="378" opacity=".99"/><line x1="54" x2="0" y1="378" y2="432" opacity=".05"/><line x1="108" x2="54" y1="378" y2="432" opacity=".09"/><line x1="162" x2="108" y1="378" y2="432" opacity=".12"/><line x1="216" x2="162" y1="378" y2="432" opacity=".16"/><line x1="270" x2="216" y1="378" y2="432" opacity=".19"/><line x1="270" x2="324" y1="378" y2="432" opacity=".23"/><line x1="378" x2="324" y1="378" y2="432" opacity=".27"/><line x1="378" x2="432" y1="378" y2="432" opacity=".3"/><line x1="432" x2="486" y1="378" y2="432" opacity=".34"/><line x1="540" x2="486" y1="378" y2="432" opacity=".37"/><line x1="594" x2="540" y1="378" y2="432" opacity=".41"/><line x1="648" x2="594" y1="378" y2="432" opacity=".45"/><line x1="648" x2="702" y1="378" y2="432" opacity=".48"/><line x1="702" x2="756" y1="378" y2="432" opacity=".52"/><line x1="810" x2="756" y1="378" y2="432" opacity=".56"/><line x1="864" x2="810" y1="378" y2="432" opacity=".59"/><line x1="864" x2="918" y1="378" y2="432" opacity=".63"/><line x1="918" x2="972" y1="378" y2="432" opacity=".66"/><line x1="1026" x2="972" y1="378" y2="432" opacity=".7"/><line x1="1026" x2="1080" y1="378" y2="432" opacity=".74"/><line x1="1134" x2="1080" y1="378" y2="432" opacity=".77"/><line x1="1134" x2="1188" y1="378" y2="432" opacity=".81"/><line x1="1242" x2="1188" y1="378" y2="432" opacity=".84"/><line x1="1296" x2="1242" y1="378" y2="432" opacity=".88"/><line x1="1296" x2="1350" y1="378" y2="432" opacity=".92"/><line x1="1404" x2="1350" y1="378" y2="432" opacity=".95"/><line x1="1404" x2="1458" y1="378" y2="432" opacity=".99"/><line x1="54" x2="0" y1="432" y2="486" opacity=".05"/><line x1="108" x2="54" y1="432" y2="486" opacity=".09"/><line x1="108" x2="162" y1="432" y2="486" opacity=".12"/><line x1="216" x2="162" y1="432" y2="486" opacity=".16"/><line x1="216" x2="270" y1="432" y2="486" opacity=".19"/><line x1="270" x2="324" y1="432" y2="486" opacity=".23"/><line x1="324" x2="378" y1="432" y2="486" opacity=".27"/><line x1="378" x2="432" y1="432" y2="486" opacity=".3"/><line x1="432" x2="486" y1="432" y2="486" opacity=".34"/><line x1="486" x2="540" y1="432" y2="486" opacity=".37"/><line x1="594" x2="540" y1="432" y2="486" opacity=".41"/><line x1="648" x2="594" y1="432" y2="486" opacity=".45"/><line x1="648" x2="702" y1="432" y2="486" opacity=".48"/><line x1="702" x2="756" y1="432" y2="486" opacity=".52"/><line x1="810" x2="756" y1="432" y2="486" opacity=".56"/><line x1="810" x2="864" y1="432" y2="486" opacity=".59"/><line x1="864" x2="918" y1="432" y2="486" opacity=".63"/><line x1="972" x2="918" y1="432" y2="486" opacity=".66"/><line x1="1026" x2="972" y1="432" y2="486" opacity=".7"/><line x1="1080" x2="1026" y1="432" y2="486" opacity=".74"/><line x1="1134" x2="1080" y1="432" y2="486" opacity=".77"/><line x1="1134" x2="1188" y1="432" y2="486" opacity=".81"/><line x1="1242" x2="1188" y1="432" y2="486" opacity=".84"/><line x1="1242" x2="1296" y1="432" y2="486" opacity=".88"/><line x1="1350" x2="1296" y1="432" y2="486" opacity=".92"/><line x1="1404" x2="1350" y1="432" y2="486" opacity=".95"/><line x1="1458" x2="1404" y1="432" y2="486" opacity=".99"/><line x1="54" x2="0" y1="486" y2="540" opacity=".05"/><line x1="54" x2="108" y1="486" y2="540" opacity=".09"/><line x1="108" x2="162" y1="486" y2="540" opacity=".12"/><line x1="216" x2="162" y1="486" y2="540" opacity=".16"/><line x1="270" x2="216" y1="486" y2="540" opacity=".19"/><line x1="324" x2="270" y1="486" y2="540" opacity=".23"/><line x1="324" x2="378" y1="486" y2="540" opacity=".27"/><line x1="378" x2="432" y1="486" y2="540" opacity=".3"/><line x1="432" x2="486" y1="486" y2="540" opacity=".34"/><line x1="540" x2="486" y1="486" y2="540" opacity=".37"/><line x1="594" x2="540" y1="486" y2="540" opacity=".41"/><line x1="648" x2="594" y1="486" y2="540" opacity=".45"/><line x1="648" x2="702" y1="486" y2="540" opacity=".48"/><line x1="756" x2="702" y1="486" y2="540" opacity=".52"/><line x1="810" x2="756" y1="486" y2="540" opacity=".56"/><line x1="864" x2="810" y1="486" y2="540" opacity=".59"/><line x1="864" x2="918" y1="486" y2="540" opacity=".63"/><line x1="972" x2="918" y1="486" y2="540" opacity=".66"/><line x1="972" x2="1026" y1="486" y2="540" opacity=".7"/><line x1="1026" x2="1080" y1="486" y2="540" opacity=".74"/><line x1="1134" x2="1080" y1="486" y2="540" opacity=".77"/><line x1="1134" x2="1188" y1="486" y2="540" opacity=".81"/><line x1="1188" x2="1242" y1="486" y2="540" opacity=".84"/><line x1="1296" x2="1242" y1="486" y2="540" opacity=".88"/><line x1="1350" x2="1296" y1="486" y2="540" opacity=".92"/><line x1="1350" x2="1404" y1="486" y2="540" opacity=".95"/><line x1="1458" x2="1404" y1="486" y2="540" opacity=".99"/><line x1="54" x2="0" y1="540" y2="594" opacity=".05"/><line x1="108" x2="54" y1="540" y2="594" opacity=".09"/><line x1="162" x2="108" y1="540" y2="594" opacity=".12"/><line x1="216" x2="162" y1="540" y2="594" opacity=".16"/><line x1="270" x2="216" y1="540" y2="594" opacity=".19"/><line x1="270" x2="324" y1="540" y2="594" opacity=".23"/><line x1="324" x2="378" y1="540" y2="594" opacity=".27"/><line x1="432" x2="378" y1="540" y2="594" opacity=".3"/><line x1="486" x2="432" y1="540" y2="594" opacity=".34"/><line x1="540" x2="486" y1="540" y2="594" opacity=".37"/><line x1="540" x2="594" y1="540" y2="594" opacity=".41"/><line x1="594" x2="648" y1="540" y2="594" opacity=".45"/><line x1="702" x2="648" y1="540" y2="594" opacity=".48"/><line x1="756" x2="702" y1="540" y2="594" opacity=".52"/><line x1="756" x2="810" y1="540" y2="594" opacity=".56"/><line x1="810" x2="864" y1="540" y2="594" opacity=".59"/><line x1="864" x2="918" y1="540" y2="594" opacity=".63"/><line x1="918" x2="972" y1="540" y2="594" opacity=".66"/><line x1="972" x2="1026" y1="540" y2="594" opacity=".7"/><line x1="1026" x2="1080" y1="540" y2="594" opacity=".74"/><line x1="1134" x2="1080" y1="540" y2="594" opacity=".77"/><line x1="1134" x2="1188" y1="540" y2="594" opacity=".81"/><line x1="1242" x2="1188" y1="540" y2="594" opacity=".84"/><line x1="1296" x2="1242" y1="540" y2="594" opacity=".88"/><line x1="1350" x2="1296" y1="540" y2="594" opacity=".92"/><line x1="1350" x2="1404" y1="540" y2="594" opacity=".95"/><line x1="1458" x2="1404" y1="540" y2="594" opacity=".99"/><line x1="0" x2="54" y1="594" y2="648" opacity=".05"/><line x1="108" x2="54" y1="594" y2="648" opacity=".09"/><line x1="108" x2="162" y1="594" y2="648" opacity=".12"/><line x1="162" x2="216" y1="594" y2="648" opacity=".16"/><line x1="270" x2="216" y1="594" y2="648" opacity=".19"/><line x1="324" x2="270" y1="594" y2="648" opacity=".23"/><line x1="378" x2="324" y1="594" y2="648" opacity=".27"/><line x1="378" x2="432" y1="594" y2="648" opacity=".3"/><line x1="432" x2="486" y1="594" y2="648" opacity=".34"/><line x1="540" x2="486" y1="594" y2="648" opacity=".37"/><line x1="540" x2="594" y1="594" y2="648" opacity=".41"/><line x1="648" x2="594" y1="594" y2="648" opacity=".45"/><line x1="702" x2="648" y1="594" y2="648" opacity=".48"/><line x1="756" x2="702" y1="594" y2="648" opacity=".52"/><line x1="810" x2="756" y1="594" y2="648" opacity=".56"/><line x1="864" x2="810" y1="594" y2="648" opacity=".59"/><line x1="864" x2="918" y1="594" y2="648" opacity=".63"/><line x1="972" x2="918" y1="594" y2="648" opacity=".66"/><line x1="972" x2="1026" y1="594" y2="648" opacity=".7"/><line x1="1080" x2="1026" y1="594" y2="648" opacity=".74"/><line x1="1080" x2="1134" y1="594" y2="648" opacity=".77"/><line x1="1134" x2="1188" y1="594" y2="648" opacity=".81"/><line x1="1188" x2="1242" y1="594" y2="648" opacity=".84"/><line x1="1242" x2="1296" y1="594" y2="648" opacity=".88"/><line x1="1350" x2="1296" y1="594" y2="648" opacity=".92"/><line x1="1404" x2="1350" y1="594" y2="648" opacity=".95"/><line x1="1404" x2="1458" y1="594" y2="648" opacity=".99"/><line x1="0" x2="54" y1="648" y2="702" opacity=".05"/><line x1="54" x2="108" y1="648" y2="702" opacity=".09"/><line x1="108" x2="162" y1="648" y2="702" opacity=".12"/><line x1="216" x2="162" y1="648" y2="702" opacity=".16"/><line x1="216" x2="270" y1="648" y2="702" opacity=".19"/><line x1="270" x2="324" y1="648" y2="702" opacity=".23"/><line x1="378" x2="324" y1="648" y2="702" opacity=".27"/><line x1="432" x2="378" y1="648" y2="702" opacity=".3"/><line x1="432" x2="486" y1="648" y2="702" opacity=".34"/><line x1="486" x2="540" y1="648" y2="702" opacity=".37"/><line x1="594" x2="540" y1="648" y2="702" opacity=".41"/><line x1="648" x2="594" y1="648" y2="702" opacity=".45"/><line x1="648" x2="702" y1="648" y2="702" opacity=".48"/><line x1="702" x2="756" y1="648" y2="702" opacity=".52"/><line x1="756" x2="810" y1="648" y2="702" opacity=".56"/><line x1="810" x2="864" y1="648" y2="702" opacity=".59"/><line x1="864" x2="918" y1="648" y2="702" opacity=".63"/><line x1="918" x2="972" y1="648" y2="702" opacity=".66"/><line x1="1026" x2="972" y1="648" y2="702" opacity=".7"/><line x1="1080" x2="1026" y1="648" y2="702" opacity=".74"/><line x1="1080" x2="1134" y1="648" y2="702" opacity=".77"/><line x1="1188" x2="1134" y1="648" y2="702" opacity=".81"/><line x1="1188" x2="1242" y1="648" y2="702" opacity=".84"/><line x1="1242" x2="1296" y1="648" y2="702" opacity=".88"/><line x1="1350" x2="1296" y1="648" y2="702" opacity=".92"/><line x1="1404" x2="1350" y1="648" y2="702" opacity=".95"/><line x1="1404" x2="1458" y1="648" y2="702" opacity=".99"/><line x1="0" x2="54" y1="702" y2="756" opacity=".05"/><line x1="54" x2="108" y1="702" y2="756" opacity=".09"/><line x1="162" x2="108" y1="702" y2="756" opacity=".12"/><line x1="162" x2="216" y1="702" y2="756" opacity=".16"/><line x1="216" x2="270" y1="702" y2="756" opacity=".19"/><line x1="324" x2="270" y1="702" y2="756" opacity=".23"/><line x1="378" x2="324" y1="702" y2="756" opacity=".27"/><line x1="432" x2="378" y1="702" y2="756" opacity=".3"/><line x1="432" x2="486" y1="702" y2="756" opacity=".34"/><line x1="486" x2="540" y1="702" y2="756" opacity=".37"/><line x1="594" x2="540" y1="702" y2="756" opacity=".41"/><line x1="594" x2="648" y1="702" y2="756" opacity=".45"/><line x1="648" x2="702" y1="702" y2="756" opacity=".48"/><line x1="756" x2="702" y1="702" y2="756" opacity=".52"/><line x1="810" x2="756" y1="702" y2="756" opacity=".56"/><line x1="810" x2="864" y1="702" y2="756" opacity=".59"/><line x1="864" x2="918" y1="702" y2="756" opacity=".63"/><line x1="918" x2="972" y1="702" y2="756" opacity=".66"/><line x1="972" x2="1026" y1="702" y2="756" opacity=".7"/><line x1="1080" x2="1026" y1="702" y2="756" opacity=".74"/><line x1="1080" x2="1134" y1="702" y2="756" opacity=".77"/><line x1="1134" x2="1188" y1="702" y2="756" opacity=".81"/><line x1="1242" x2="1188" y1="702" y2="756" opacity=".84"/><line x1="1296" x2="1242" y1="702" y2="756" opacity=".88"/><line x1="1296" x2="1350" y1="702" y2="756" opacity=".92"/><line x1="1350" x2="1404" y1="702" y2="756" opacity=".95"/><line x1="1458" x2="1404" y1="702" y2="756" opacity=".99"/><line x1="54" x2="0" y1="756" y2="810" opacity=".05"/><line x1="54" x2="108" y1="756" y2="810" opacity=".09"/><line x1="162" x2="108" y1="756" y2="810" opacity=".12"/><line x1="162" x2="216" y1="756" y2="810" opacity=".16"/><line x1="216" x2="270" y1="756" y2="810" opacity=".19"/><line x1="270" x2="324" y1="756" y2="810" opacity=".23"/><line x1="378" x2="324" y1="756" y2="810" opacity=".27"/><line x1="378" x2="432" y1="756" y2="810" opacity=".3"/><line x1="432" x2="486" y1="756" y2="810" opacity=".34"/><line x1="540" x2="486" y1="756" y2="810" opacity=".37"/><line x1="540" x2="594" y1="756" y2="810" opacity=".41"/><line x1="594" x2="648" y1="756" y2="810" opacity=".45"/><line x1="702" x2="648" y1="756" y2="810" opacity=".48"/><line x1="756" x2="702" y1="756" y2="810" opacity=".52"/><line x1="756" x2="810" y1="756" y2="810" opacity=".56"/><line x1="864" x2="810" y1="756" y2="810" opacity=".59"/><line x1="918" x2="864" y1="756" y2="810" opacity=".63"/><line x1="972" x2="918" y1="756" y2="810" opacity=".66"/><line x1="972" x2="1026" y1="756" y2="810" opacity=".7"/><line x1="1026" x2="1080" y1="756" y2="810" opacity=".74"/><line x1="1134" x2="1080" y1="756" y2="810" opacity=".77"/><line x1="1188" x2="1134" y1="756" y2="810" opacity=".81"/><line x1="1242" x2="1188" y1="756" y2="810" opacity=".84"/><line x1="1296" x2="1242" y1="756" y2="810" opacity=".88"/><line x1="1350" x2="1296" y1="756" y2="810" opacity=".92"/><line x1="1404" x2="1350" y1="756" y2="810" opacity=".95"/><line x1="1458" x2="1404" y1="756" y2="810" opacity=".99"/></g></svg>